HIERARCHY
ROOT Hips
{
	OFFSET 0.000000 0.000000 0.000000
	CHANNELS 6 Xposition Yposition Zposition Zrotation Yrotation Xrotation 
	JOINT LeftUpLeg_virtual
	{
		OFFSET 0.000000 0.000000 0.000000
		CHANNELS 3 Zrotation Yrotation Xrotation
		JOINT LeftUpLeg
		{
			OFFSET 8.479694 -4.795517 -0.379053
			CHANNELS 3 Zrotation Yrotation Xrotation
			JOINT LeftLeg
			{
				OFFSET 0.485052 -32.551468 0.112863
				CHANNELS 3 Zrotation Yrotation Xrotation
				JOINT LeftFoot
				{
					OFFSET 0.438033 -32.635670 -3.012641
					CHANNELS 3 Zrotation Yrotation Xrotation
					JOINT LeftToeBase
					{
						OFFSET 0.970169 -13.225353 11.864223
						CHANNELS 3 Zrotation Yrotation Xrotation
						End Site
						{
							OFFSET 0.000000 0.000000 0.000000
						}
					}
				}
			}
		}
	}
	JOINT RightUpLeg_virtual
	{
		OFFSET 0.000000 0.000000 0.000000
		CHANNELS 3 Zrotation Yrotation Xrotation
		JOINT RightUpLeg
		{
			OFFSET -8.479694 -4.795517 -0.379053
			CHANNELS 3 Zrotation Yrotation Xrotation
			JOINT RightLeg
			{
				OFFSET -0.484100 -32.551483 0.112903
				CHANNELS 3 Zrotation Yrotation Xrotation
				JOINT RightFoot
				{
					OFFSET -0.438985 -32.635651 -3.012681
					CHANNELS 3 Zrotation Yrotation Xrotation
					JOINT RightToeBase
					{
						OFFSET -0.970169 -13.225354 11.864223
						CHANNELS 3 Zrotation Yrotation Xrotation
						End Site
						{
							OFFSET 0.000000 0.000000 0.000000
						}
					}
				}
			}
		}
	}
	JOINT Spine_virtual
	{
		OFFSET 0.000000 0.000000 0.000000
		CHANNELS 3 Zrotation Yrotation Xrotation
		JOINT Spine
		{
			OFFSET 0.000000 7.722015 1.166203
			CHANNELS 3 Zrotation Yrotation Xrotation
			JOINT Spine1
			{
				OFFSET 0.000000 12.024086 0.248766
				CHANNELS 3 Zrotation Yrotation Xrotation
				JOINT Spine2
				{
					OFFSET -0.000000 11.503036 -0.491240
					CHANNELS 3 Zrotation Yrotation Xrotation
					JOINT Neck_virtual
					{
						OFFSET 0.000000 0.000000 0.000000
						CHANNELS 3 Zrotation Yrotation Xrotation
						JOINT Neck
						{
							OFFSET 0.000000 18.430687 -3.123054
							CHANNELS 3 Zrotation Yrotation Xrotation
							JOINT Head
							{
								OFFSET -0.000000 9.051071 1.034021
								CHANNELS 3 Zrotation Yrotation Xrotation
								End Site
								{
									OFFSET 0.000000 0.000000 0.000000
								}
							}
						}
					}
					JOINT LeftShoulder_virtual
					{
						OFFSET 0.000000 0.000000 0.000000
						CHANNELS 3 Zrotation Yrotation Xrotation
						JOINT LeftShoulder
						{
							OFFSET 6.197824 13.665230 -4.064723
							CHANNELS 3 Zrotation Yrotation Xrotation
							JOINT LeftArm
							{
								OFFSET 7.778132 -0.187073 -1.709282
								CHANNELS 3 Zrotation Yrotation Xrotation
								JOINT LeftForeArm
								{
									OFFSET 21.954697 0.000000 -2.041093
									CHANNELS 3 Zrotation Yrotation Xrotation
									JOINT LeftHand
									{
										OFFSET 22.992908 0.000000 -0.870901
										CHANNELS 3 Zrotation Yrotation Xrotation
										End Site
										{
											OFFSET 0.000000 0.000000 0.000000
										}
									}
								}
							}
						}
					}
					JOINT RightShoulder_virtual
					{
						OFFSET 0.000000 0.000000 0.000000
						CHANNELS 3 Zrotation Yrotation Xrotation
						JOINT RightShoulder
						{
							OFFSET -6.197824 13.665230 -4.064723
							CHANNELS 3 Zrotation Yrotation Xrotation
							JOINT RightArm
							{
								OFFSET -7.778132 -0.187073 -1.709282
								CHANNELS 3 Zrotation Yrotation Xrotation
								JOINT RightForeArm
								{
									OFFSET -21.954697 0.000000 -2.041093
									CHANNELS 3 Zrotation Yrotation Xrotation
									JOINT RightHand
									{
										OFFSET -22.992908 0.000000 -0.870901
										CHANNELS 3 Zrotation Yrotation Xrotation
										End Site
										{
											OFFSET 0.000000 0.000000 0.000000
										}
									}
								}
							}
						}
					}
				}
			}
		}
	}
}
MOTION
Frames: 4
Frame Time: 0.033333
4.970290 78.903931 58.951050 179.983886 0.723615 -179.975334 -2.113917 -1.168926 9.095609 1.578662 -0.546334 -30.767335 7.165098 7.042456 29.148153 0.249121 -2.165486 -13.102554 0.000000 0.000000 0.000000 2.181826 -2.238949 8.087660 -1.657805 6.655681 -29.649004 1.171226 6.644806 31.962663 8.486227 6.955290 -16.016321 0.000000 0.000000 0.000000 2.969093 1.034113 -2.377165 -1.235306 -2.551160 -5.709403 -1.354750 -1.272957 9.746893 0.037760 0.012584 -0.046545 -1.812792 0.241991 10.286785 0.521065 0.303779 -2.892456 0.000000 0.000000 0.000000 -0.263091 0.918039 7.615586 -12.859014 -7.848795 2.620552 -58.734996 -4.642940 7.004497 -0.495434 -18.747153 7.565067 0.000000 0.000000 0.000000 -4.495176 2.484000 6.932771 26.107952 2.614003 7.777537 48.515237 4.331328 16.132883 -6.708126 27.092768 -3.746067 0.000000 0.000000 0.000000 
4.966305 78.901619 58.899975 -179.992014 0.909024 -179.992997 -1.980348 -1.287350 9.180589 1.454382 -0.493565 -30.705303 7.477876 7.284695 29.504409 0.547791 -1.863081 -13.273355 0.000000 0.000000 0.000000 2.141493 -2.247250 8.079111 -1.787110 6.951602 -29.721404 1.636148 7.105299 31.770051 8.992144 7.623223 -16.202474 0.000000 0.000000 0.000000 3.004986 1.028216 -2.384819 -1.225911 -2.529618 -5.753140 -1.385700 -1.224851 9.835705 0.003257 0.032962 -0.021878 -1.812201 0.305860 10.187651 0.507099 0.310402 -2.861610 0.000000 0.000000 0.000000 -0.296938 0.944404 7.508519 -12.843361 -7.839891 2.571579 -58.704458 -4.588999 7.019306 -0.468503 -18.800845 7.535764 0.000000 0.000000 0.000000 -4.492506 2.485459 6.871478 26.183185 2.646710 7.747243 48.568259 4.381139 16.240977 -6.672396 26.991506 -3.663989 0.000000 0.000000 0.000000 
4.970732 78.893845 58.845131 179.961606 0.893245 -179.962357 -2.065769 -1.393121 9.198351 1.484091 -0.588622 -30.737975 7.503200 7.267663 29.649725 0.622358 -1.814142 -13.333410 0.000000 0.000000 0.000000 2.119737 -2.337903 8.084391 -1.798473 6.841826 -29.739989 1.700698 7.115290 31.855804 9.057389 7.684782 -16.284899 0.000000 0.000000 0.000000 2.998635 0.941092 -2.399707 -1.239214 -2.480639 -5.760200 -1.411716 -1.230895 9.835768 -0.010385 0.021447 -0.029012 -1.763823 0.384206 10.204121 0.530987 0.285001 -2.851114 0.000000 0.000000 0.000000 -0.245783 0.965886 7.562275 -12.773862 -7.978474 2.571727 -58.630378 -4.675848 7.085602 -0.415669 -18.869123 7.465549 0.000000 0.000000 0.000000 -4.450289 2.482625 6.858382 26.123868 2.686416 7.742352 48.700051 4.432122 16.218749 -6.635930 26.913097 -3.698851 0.000000 0.000000 0.000000 
4.970753 78.890488 58.799831 -179.987547 0.983694 -179.904656 -2.021793 -1.418225 9.208558 1.490893 -0.521025 -30.800957 7.528093 7.249606 29.722265 0.699640 -1.812958 -13.376608 0.000000 0.000000 0.000000 2.182640 -2.313006 8.068945 -1.768284 6.767338 -29.784396 1.789183 7.173558 31.896437 9.106902 7.713304 -16.306216 0.000000 0.000000 0.000000 3.025352 0.922108 -2.441624 -1.179181 -2.441176 -5.743151 -1.380440 -1.203521 9.833990 -0.021416 0.049318 0.000604 -1.791459 0.312975 10.170287 0.534232 0.268395 -2.860177 0.000000 0.000000 0.000000 -0.306246 0.965482 7.544314 -12.627834 -8.105239 2.568331 -58.578892 -4.753462 7.134058 -0.353675 -18.975618 7.457009 0.000000 0.000000 0.000000 -4.471552 2.479968 6.818765 25.993859 2.758472 7.687001 48.885003 4.333291 16.145338 -6.600119 26.822242 -3.687865 0.000000 0.000000 0.000000 
